# xmcd
#
# Track frame offsets:
#	150
#	21502
#	37255
#	51962
#	65987
#	85352
#	99992
#	113010
#	133357
#	147857
#	159857
#	173307
#	187437
#	201050
#
# Disc length: 2963 seconds
#
# Revision: 0
# Processed by: cddbd v1.5.2PL0 Copyright (c) Steve Scherf et al.
# Submitted via: EasyCDDAExtractor 8.2.1.1
#
DISCID=cf0b910e
DTITLE=Various Artist - MAIS VOCÊ DO QUE EU
DYEAR=2006
DGENRE=Country
TTITLE0=DANI E DANILO(LUIZ AYRÃO) - AMOR DIVIDIDO
TTITLE1=DANI E DANILO - MAIS VOCÊ DO QUE EU
TTITLE2=DANI E DANILO - SONHO DE PRIMAVERA
TTITLE3=DANI E DANILO - COM UM TRM DENTRO DO ZÓIO
TTITLE4=DANI E DANILO - DOENTE DE AMOR
TTITLE5=DANI E DANILO - EM SUAS MÃOS
TTITLE6=DANI E DANILO - CHORA VIOLA
TTITLE7=DANI E DANILO(DURVAL E DAVI) - RETROVISOR QUEBRADO
TTITLE8=DANI E DANILO - OUTRA PAIXÃO
TTITLE9=DANI E DANILO - COWBOY POR VOCAÇÃO
TTITLE10=DANI E DANILO - PÉ DE PAIXÃO
TTITLE11=DANI E DANILO(MATOGROSSO) - PACIÊNCIA COMIGO
TTITLE12=DANI E DANILO - SAUDOSA INFÂNCIA
TTITLE13=DANI E DANILO - AMOR DIVIDIDO 2
EXTD=
EXTT0=
EXTT1=
EXTT2=
EXTT3=
EXTT4=
EXTT5=
EXTT6=
EXTT7=
EXTT8=
EXTT9=
EXTT10=
EXTT11=
EXTT12=
EXTT13=
PLAYORDER=
